<svg xmlns="http://www.w3.org/2000/svg" viewBox="0 0 468 155.96"><defs><style>.cls-1{fill:#53ae93;}.cls-2{fill:#254442;}</style></defs><title>Spruce Primary Brandmark</title><g id="Layer_2" data-name="Layer 2"><g id="Layer_1-2" data-name="Layer 1"><path class="cls-1" d="M389.07,41.81,388,40a52.07,52.07,0,0,0-18-18l-1.8-1.06,1.8-1.06a52.1,52.1,0,0,0,18-18L389.07,0l1.06,1.81a52,52,0,0,0,18,18L410,20.91,408.17,22a52.07,52.07,0,0,0-18,18Zm-14.94-20.9a21.05,21.05,0,0,1,14.94,14.94c3.37-8.51,8.26-12.64,14.94-14.94A22.16,22.16,0,0,1,389.07,6C386.43,13.81,382,18.33,374.13,20.91Z"/><path class="cls-2" d="M314.25,105.78v2.84L289.49,113c-4.51.67-4.68-3.18-4.68-3.18V96.93c-4,8.33-17.9,16.2-28.27,16.2-13.22,0-21.08-5.51-21.08-25.59V51.74c0-10,.34-11.54-9.37-12.88V36l30.12-3.18V87c0,9.37,4.34,13.89,14.05,13.89,4.68,0,11-5.68,14.55-12.15V52.25c0-10.21.67-12.38-7.86-13.39V36l28.77-3.18v63.4C305.72,104.27,307.23,104.94,314.25,105.78Z"/><path class="cls-2" d="M218.39,35.85A12.51,12.51,0,0,1,202,54.76a11.17,11.17,0,0,1-3.84-8.2c0-1.84-6.86,2.33-13,11.81V91.22c0,9.37.83,15.9,6.85,17.57v2.84H157.34v-2.84c6.52-2,6.69-8.87,6.69-17.57V54.09c0-5.69-1.51-8.2-8.37-11.72V39.53l29.45-6.69v18.9c8.86-13.88,15.72-16.39,19.73-18.06C208.36,32.17,214.72,32.84,218.39,35.85Z"/><path class="cls-2" d="M435.72,98.93c-11.21-2.53-19.58-11.14-20.92-27.68H468c0-26.32-11.37-39-35.63-39-23.09,0-39.14,17-39.14,40.84,0,19.75,15,40.16,37,40.16,22.42,0,32.29-13.32,35-22.1l-2.85-1.52C458.13,97.58,444.75,101,435.72,98.93Zm-4.19-61.67c8.91,0,15.6,7.79,16,27.8H414.84C415.37,49.48,422.07,37.26,431.53,37.26Z"/><path class="cls-2" d="M388.51,77.49c1.4,8.53-3,24.6-20.83,32.73-19.53,8.9-42.74-1.81-50.74-19.19-7.85-17.09-4.25-44.28,21.22-55.93,10.58-4.84,21.49-2.32,25-1.26a11.24,11.24,0,0,1,7.56,8.6,11.06,11.06,0,0,1-8.94,12.72,10.68,10.68,0,0,1-12.53-8.83,9.49,9.49,0,0,1,1.88-8.06c1.07-1.21-6.74,0-11.1,3-9.14,6.23-11.56,23.9-4.4,38.61,7.28,15,23.2,21.41,33.36,17.44,11.86-4.62,15.6-13.71,16.77-20.18Z"/><path class="cls-2" d="M154.05,71.85c0-25.73-17.86-41.65-38.7-37.83a27.23,27.23,0,0,0-5.18,1.33l-.13,0h0a21.94,21.94,0,0,0-12.24,11V32.84L68.85,39.53v2.84c6.65,2.52,8.32,3.69,8.32,9.37v85.15c0,8.53-.34,14.39-6.66,16.23V156h34.1v-2.84c-5.82-1.51-6.82-6.86-6.82-16.23V108c4.77,3.35,11.22,5.19,18.28,5.19h0c21.67-.81,38-13.54,38-39.28ZM114.36,41.26c13,2.21,17.2,16.51,17.2,31.13v2.36c0,18.75-7.86,32.91-17.86,32.7-7.24-.86-14.64-6.35-15.91-20.75V58.4C98.87,49.12,106,40.6,114.36,41.26Z"/><path class="cls-2" d="M9.27,106.44q-10.33-7-9.15-16.07A11.52,11.52,0,0,1,4.7,82.43,12.5,12.5,0,0,1,14,80.05a12.74,12.74,0,0,1,8.51,4.22,9.75,9.75,0,0,1,2.54,8,10,10,0,0,1-4.22,7.06,24.66,24.66,0,0,1-2.42,1.48l.26.5.17.26c3.38,5.48,10.77,7.18,16.25,6.77,15.36-1.15,17.16-18,2.5-24.72L19.64,74C11.45,69.53,4.14,65.54,3,57.76,1,44.91,10.57,37.11,22.21,34.33c8.93-2.13,19.43-.49,23.16.48.36.09,4.54,1.14,6.17,1.8a32.77,32.77,0,0,1,5.3,2.63C61,41.93,62.13,45,62,48.52a9.82,9.82,0,0,1-10.29,9.75c-5.93,0-10.59-4.68-10.37-10.12a8.46,8.46,0,0,1,3.3-6.91c.22-.16.15-.29-.11-.4l0,0c-4.39-1.69-7.92-1.78-12.91-1.35a20,20,0,0,0-5.53,1.91c-2.85,1.56-4.45,3.69-4.38,6.4.08,3.25,2.51,7.5,9.29,10.93,4.84,2.46,15,6.51,19.83,8.9,16.28,8,20.39,22.86,11.48,34.4a36.27,36.27,0,0,1-26.94,11.48c-11.37,0-19.24-2.46-26.53-7.31"/></g></g></svg>